<svg width="208" height="75" viewBox="0 0 208 75" fill="none" xmlns="http://www.w3.org/2000/svg">
<path d="M1.5 1.5C0.075 2.925 0 3.975 0 39V75H30H60V39C60 3.975 59.925 2.925 58.5 1.5C57.075 0.074997 56.025 -2.98023e-06 30 -2.98023e-06C3.975 -2.98023e-06 2.925 0.074997 1.5 1.5ZM56.85 37.725L57 72H30H3V38.025C3 19.275 3.225 3.75 3.525 3.525C3.825 3.225 15.825 3.075 30.3 3.15L56.625 3.375L56.85 37.725Z" fill="white"/>
<path d="M6 28.5V48H24H42V28.5V9H24H6V28.5ZM39 28.5V45H24H9V28.5V12H24H39V28.5Z" fill="white"/>
<path d="M13.5 16.5C13.5 17.475 12.975 18 12 18C11.025 18 10.5 18.525 10.5 19.5C10.5 20.925 11.025 21 24 21C36.975 21 37.5 20.925 37.5 19.5C37.5 18.525 36.975 18 36 18C35.025 18 34.5 17.475 34.5 16.5C34.5 15.525 33.975 15 33 15C32.025 15 31.5 15.525 31.5 16.5C31.5 17.475 30.975 18 30 18C29.025 18 28.5 17.475 28.5 16.5C28.5 15.525 27.975 15 27 15C26.025 15 25.5 15.525 25.5 16.5C25.5 17.475 24.975 18 24 18C23.025 18 22.5 17.475 22.5 16.5C22.5 15.525 21.975 15 21 15C20.025 15 19.5 15.525 19.5 16.5C19.5 17.475 18.975 18 18 18C17.025 18 16.5 17.475 16.5 16.5C16.5 15.525 15.975 15 15 15C14.025 15 13.5 15.525 13.5 16.5Z" fill="white"/>
<path d="M13.5 25.5C13.5 26.475 12.975 27 12 27C11.025 27 10.5 27.525 10.5 28.5C10.5 29.925 11.025 30 24 30C36.975 30 37.5 29.925 37.5 28.5C37.5 27.525 36.975 27 36 27C35.025 27 34.5 26.475 34.5 25.5C34.5 24.525 33.975 24 33 24C32.025 24 31.5 24.525 31.5 25.5C31.5 26.475 30.975 27 30 27C29.025 27 28.5 26.475 28.5 25.5C28.5 24.525 27.975 24 27 24C26.025 24 25.5 24.525 25.5 25.5C25.5 26.475 24.975 27 24 27C23.025 27 22.5 26.475 22.5 25.5C22.5 24.525 21.975 24 21 24C20.025 24 19.5 24.525 19.5 25.5C19.5 26.475 18.975 27 18 27C17.025 27 16.5 26.475 16.5 25.5C16.5 24.525 15.975 24 15 24C14.025 24 13.5 24.525 13.5 25.5Z" fill="white"/>
<path d="M13.5 34.5C13.5 35.475 12.975 36 12 36C11.025 36 10.5 36.525 10.5 37.5C10.5 38.925 11.025 39 24 39C36.975 39 37.5 38.925 37.5 37.5C37.5 36.525 36.975 36 36 36C35.025 36 34.5 35.475 34.5 34.5C34.5 33.525 33.975 33 33 33C32.025 33 31.5 33.525 31.5 34.5C31.5 35.475 30.975 36 30 36C29.025 36 28.5 35.475 28.5 34.5C28.5 33.525 27.975 33 27 33C26.025 33 25.5 33.525 25.5 34.5C25.5 35.475 24.975 36 24 36C23.025 36 22.5 35.475 22.5 34.5C22.5 33.525 21.975 33 21 33C20.025 33 19.5 33.525 19.5 34.5C19.5 35.475 18.975 36 18 36C17.025 36 16.5 35.475 16.5 34.5C16.5 33.525 15.975 33 15 33C14.025 33 13.5 33.525 13.5 34.5Z" fill="white"/>
<path d="M45 16.5C45 17.85 45.525 18 49.5 18C53.475 18 54 17.85 54 16.5C54 15.15 53.475 15 49.5 15C45.525 15 45 15.15 45 16.5Z" fill="white"/>
<path d="M45 22.5C45 23.85 45.525 24 49.5 24C53.475 24 54 23.85 54 22.5C54 21.15 53.475 21 49.5 21C45.525 21 45 21.15 45 22.5Z" fill="white"/>
<path d="M45 28.5C45 29.85 45.525 30 49.5 30C53.475 30 54 29.85 54 28.5C54 27.15 53.475 27 49.5 27C45.525 27 45 27.15 45 28.5Z" fill="white"/>
<path d="M45 34.5C45 35.85 45.525 36 49.5 36C53.475 36 54 35.85 54 34.5C54 33.15 53.475 33 49.5 33C45.525 33 45 33.15 45 34.5Z" fill="white"/>
<path d="M46.5 43.5C45.675 44.325 45 45.675 45 46.5C45 47.85 45.525 48 49.5 48C53.475 48 54 47.85 54 46.5C54 44.55 51.45 42 49.5 42C48.675 42 47.325 42.675 46.5 43.5Z" fill="white"/>
<path d="M6 58.5V66H24H42V58.5V51H24H6V58.5ZM39 58.5V63H34.275H29.55L29.85 60.15C30.225 55.875 28.875 54.6 24.75 55.5C17.25 57.15 17.85 56.775 18.15 60L18.45 63H13.725H9V58.5V54H24H39V58.5ZM27 59.175C27 60 25.125 60.75 22.8 60.75C20.55 60.75 20.4 59.475 22.725 59.025C25.725 58.425 27 58.5 27 59.175Z" fill="white"/>
<path d="M82.9238 10.4395H86.8975L80.5879 29H76.2969L70 10.4395H73.9736L77.4648 21.4844C77.6595 22.1361 77.8584 22.8978 78.0615 23.7695C78.2731 24.6328 78.4043 25.2337 78.4551 25.5723C78.5482 24.7936 78.8656 23.431 79.4072 21.4844L82.9238 10.4395ZM99.9355 29H89.2461V10.4395H99.9355V13.6641H93.1816V17.7393H99.4658V20.9639H93.1816V25.75H99.9355V29ZM120.286 29H115.284L107.21 14.959H107.096C107.257 17.4388 107.337 19.2077 107.337 20.2656V29H103.82V10.4395H108.784L116.846 24.3408H116.935C116.808 21.9287 116.744 20.2233 116.744 19.2246V10.4395H120.286V29ZM140.37 19.542C140.37 22.5973 139.498 24.9375 137.755 26.5625C136.02 28.1875 133.51 29 130.227 29H124.971V10.4395H130.798C133.828 10.4395 136.181 11.2393 137.856 12.8389C139.532 14.4385 140.37 16.6729 140.37 19.542ZM136.282 19.6436C136.282 15.6572 134.522 13.6641 131.001 13.6641H128.906V25.75H130.595C134.386 25.75 136.282 23.7145 136.282 19.6436ZM144.217 29V10.4395H148.152V29H144.217ZM169.29 29H164.288L156.214 14.959H156.1C156.26 17.4388 156.341 19.2077 156.341 20.2656V29H152.824V10.4395H157.788L165.85 24.3408H165.938C165.812 21.9287 165.748 20.2233 165.748 19.2246V10.4395H169.29V29ZM181.021 18.5771H188.384V28.2002C187.19 28.5895 186.065 28.8604 185.007 29.0127C183.957 29.1735 182.882 29.2539 181.782 29.2539C178.981 29.2539 176.84 28.4329 175.358 26.791C173.886 25.1406 173.149 22.7751 173.149 19.6943C173.149 16.6982 174.004 14.3623 175.714 12.6865C177.432 11.0107 179.81 10.1729 182.849 10.1729C184.753 10.1729 186.59 10.5537 188.358 11.3154L187.051 14.4639C185.697 13.7868 184.287 13.4482 182.823 13.4482C181.122 13.4482 179.759 14.0195 178.735 15.1621C177.711 16.3047 177.199 17.8408 177.199 19.7705C177.199 21.7848 177.61 23.3252 178.431 24.3916C179.26 25.4495 180.462 25.9785 182.036 25.9785C182.857 25.9785 183.691 25.8939 184.537 25.7246V21.8525H181.021V18.5771ZM80.1943 64L75.7256 49.4385H75.6113C75.7721 52.4007 75.8525 54.377 75.8525 55.3672V64H72.3359V45.4395H77.6934L82.0859 59.6328H82.1621L86.8213 45.4395H92.1787V64H88.5098V55.2148C88.5098 54.8001 88.514 54.3219 88.5225 53.7803C88.5394 53.2386 88.5986 51.7998 88.7002 49.4639H88.5859L83.7998 64H80.1943ZM108.226 64L106.88 59.582H100.113L98.7676 64H94.5273L101.078 45.3633H105.89L112.466 64H108.226ZM105.94 56.2812C104.696 52.278 103.994 50.014 103.833 49.4893C103.681 48.9645 103.571 48.5498 103.503 48.2451C103.224 49.3285 102.424 52.0072 101.104 56.2812H105.94ZM122.698 48.4482C121.217 48.4482 120.07 49.0068 119.258 50.124C118.445 51.2327 118.039 52.7816 118.039 54.7705C118.039 58.9092 119.592 60.9785 122.698 60.9785C124.002 60.9785 125.58 60.6527 127.434 60.001V63.3018C125.91 63.9365 124.209 64.2539 122.33 64.2539C119.63 64.2539 117.565 63.4372 116.135 61.8037C114.704 60.1618 113.989 57.8089 113.989 54.7451C113.989 52.8154 114.34 51.127 115.043 49.6797C115.745 48.224 116.753 47.111 118.064 46.3408C119.385 45.5622 120.929 45.1729 122.698 45.1729C124.501 45.1729 126.312 45.6087 128.132 46.4805L126.862 49.6797C126.168 49.3496 125.47 49.0618 124.768 48.8164C124.065 48.571 123.375 48.4482 122.698 48.4482ZM146.604 64H142.681V55.9893H135.33V64H131.395V45.4395H135.33V52.7139H142.681V45.4395H146.604V64ZM151.301 64V45.4395H155.236V64H151.301ZM176.374 64H171.372L163.298 49.959H163.184C163.344 52.4388 163.425 54.2077 163.425 55.2656V64H159.908V45.4395H164.872L172.934 59.3408H173.022C172.896 56.9287 172.832 55.2233 172.832 54.2246V45.4395H176.374V64ZM191.748 64H181.059V45.4395H191.748V48.6641H184.994V52.7393H191.278V55.9639H184.994V60.75H191.748V64ZM206.589 58.8457C206.589 60.5215 205.984 61.8418 204.773 62.8066C203.572 63.7715 201.896 64.2539 199.746 64.2539C197.766 64.2539 196.014 63.8815 194.49 63.1367V59.4805C195.743 60.0391 196.801 60.4326 197.664 60.6611C198.536 60.8896 199.331 61.0039 200.051 61.0039C200.914 61.0039 201.574 60.8389 202.031 60.5088C202.497 60.1787 202.729 59.6878 202.729 59.0361C202.729 58.6722 202.628 58.3506 202.425 58.0713C202.222 57.7835 201.921 57.5085 201.523 57.2461C201.134 56.9837 200.334 56.5648 199.124 55.9893C197.99 55.4561 197.139 54.944 196.572 54.4531C196.005 53.9622 195.552 53.391 195.214 52.7393C194.875 52.0876 194.706 51.3258 194.706 50.4541C194.706 48.8122 195.26 47.5215 196.369 46.582C197.486 45.6426 199.027 45.1729 200.99 45.1729C201.955 45.1729 202.873 45.2871 203.745 45.5156C204.625 45.7441 205.544 46.0658 206.5 46.4805L205.23 49.54C204.24 49.1338 203.419 48.8503 202.768 48.6895C202.124 48.5286 201.49 48.4482 200.863 48.4482C200.118 48.4482 199.547 48.6217 199.149 48.9688C198.752 49.3158 198.553 49.7686 198.553 50.3271C198.553 50.6742 198.633 50.9788 198.794 51.2412C198.955 51.4951 199.209 51.7448 199.556 51.9902C199.911 52.2272 200.745 52.6589 202.057 53.2852C203.792 54.1146 204.981 54.9482 205.624 55.7861C206.267 56.6156 206.589 57.6354 206.589 58.8457Z" fill="white"/>
</svg>
